HIERARCHY
ROOT Bip01
{
  OFFSET 15.7446 31.5610 57.6474
  CHANNELS 6 Xposition Yposition Zposition Zrotation Xrotation Yrotation
  JOINT Bip01_Footsteps
  {
    OFFSET 53.2821 -0.0001 8.1953
    CHANNELS 6 Xposition Yposition Zposition Zrotation Xrotation Yrotation
    End Site
    {
      OFFSET 0 0 0
    }
  }
  JOINT b_Hips
  {
    OFFSET 0.0000 0.0000 0.0000
    CHANNELS 6 Xposition Yposition Zposition Zrotation Xrotation Yrotation
    JOINT b_Spine
    {
      OFFSET 10.4409 -1.6220 0.0000
      CHANNELS 6 Xposition Yposition Zposition Zrotation Xrotation Yrotation
      JOINT b_Spine1
      {
        OFFSET 8.8514 -0.0090 0.0000
        CHANNELS 6 Xposition Yposition Zposition Zrotation Xrotation Yrotation
        JOINT b_Spine2
        {
          OFFSET 11.3035 -0.0088 -0.0000
          CHANNELS 6 Xposition Yposition Zposition Zrotation Xrotation Yrotation
          JOINT b_Spine3
          {
            OFFSET 11.0297 -0.0113 0.0000
            CHANNELS 6 Xposition Yposition Zposition Zrotation Xrotation Yrotation
            JOINT b__Neck
            {
              OFFSET 14.9480 -3.1935 0.0000
              CHANNELS 6 Xposition Yposition Zposition Zrotation Xrotation Yrotation
              JOINT b__Neck1
              {
                OFFSET 5.4958 -0.0043 -0.0000
                CHANNELS 6 Xposition Yposition Zposition Zrotation Xrotation Yrotation
                JOINT b__Neck2
                {
                  OFFSET 5.5266 -0.0049 0.0000
                  CHANNELS 6 Xposition Yposition Zposition Zrotation Xrotation Yrotation
                  JOINT b_Head
                  {
                    OFFSET 6.1093 0.0000 -0.0000
                    CHANNELS 6 Xposition Yposition Zposition Zrotation Xrotation Yrotation
                    JOINT Bip01_HeadNub
                    {
                      OFFSET 28.6688 -0.0000 0.0000
                      CHANNELS 6 Xposition Yposition Zposition Zrotation Xrotation Yrotation
                      End Site
                      {
                        OFFSET 0 0 0
                      }
                    }
                    JOINT Dog_Jaw
                    {
                      OFFSET 0.6075 2.3575 -0.0000
                      CHANNELS 6 Xposition Yposition Zposition Zrotation Xrotation Yrotation
                      End Site
                      {
                        OFFSET 0 0 0
                      }
                    }
                  }
                }
              }
            }
            JOINT b_LeftClav
            {
              OFFSET 10.4683 2.1257 3.5190
              CHANNELS 6 Xposition Yposition Zposition Zrotation Xrotation Yrotation
              JOINT b_LeftArm
              {
                OFFSET 7.3453 0.0000 0.0000
                CHANNELS 6 Xposition Yposition Zposition Zrotation Xrotation Yrotation
                JOINT b_LeftForeArm
                {
                  OFFSET 23.3863 -0.0000 0.0000
                  CHANNELS 6 Xposition Yposition Zposition Zrotation Xrotation Yrotation
                  JOINT b_LeftHand
                  {
                    OFFSET 21.5040 -0.0000 0.0000
                    CHANNELS 6 Xposition Yposition Zposition Zrotation Xrotation Yrotation
                    JOINT b__LeftFinger
                    {
                      OFFSET 1.5926 6.2126 -0.0138
                      CHANNELS 6 Xposition Yposition Zposition Zrotation Xrotation Yrotation
                      JOINT Bip01_L_Finger0Nub
                      {
                        OFFSET 23.3657 0.0000 0.0000
                        CHANNELS 6 Xposition Yposition Zposition Zrotation Xrotation Yrotation
                        End Site
                        {
                          OFFSET 0 0 0
                        }
                      }
                    }
                  }
                }
                JOINT Dog_LeftArmor002
                {
                  OFFSET 4.2035 4.4457 12.7354
                  CHANNELS 6 Xposition Yposition Zposition Zrotation Xrotation Yrotation
                  End Site
                  {
                    OFFSET 0 0 0
                  }
                }
              }
            }
            JOINT b_RightClav
            {
              OFFSET 10.4683 2.1257 -3.5189
              CHANNELS 6 Xposition Yposition Zposition Zrotation Xrotation Yrotation
              JOINT b_RightArm
              {
                OFFSET 7.3453 0.0000 -0.0000
                CHANNELS 6 Xposition Yposition Zposition Zrotation Xrotation Yrotation
                JOINT b_RightForeArm
                {
                  OFFSET 23.3863 0.0000 -0.0000
                  CHANNELS 6 Xposition Yposition Zposition Zrotation Xrotation Yrotation
                  JOINT b_RightHand
                  {
                    OFFSET 21.5040 0.0000 0.0000
                    CHANNELS 6 Xposition Yposition Zposition Zrotation Xrotation Yrotation
                    JOINT b_RightFinger
                    {
                      OFFSET 1.5926 6.2126 0.0138
                      CHANNELS 6 Xposition Yposition Zposition Zrotation Xrotation Yrotation
                      JOINT Bip01_R_Finger0Nub
                      {
                        OFFSET 23.3657 -0.0000 0.0000
                        CHANNELS 6 Xposition Yposition Zposition Zrotation Xrotation Yrotation
                        End Site
                        {
                          OFFSET 0 0 0
                        }
                      }
                    }
                  }
                }
                JOINT Dog_RightArmor002
                {
                  OFFSET 4.2034 4.4457 -12.7351
                  CHANNELS 6 Xposition Yposition Zposition Zrotation Xrotation Yrotation
                  End Site
                  {
                    OFFSET 0 0 0
                  }
                }
              }
            }
          }
        }
      }
    }
    JOINT b_Tail001
    {
      OFFSET -4.7889 3.8598 0.8608
      CHANNELS 6 Xposition Yposition Zposition Zrotation Xrotation Yrotation
      JOINT b_Tail002
      {
        OFFSET 5.0654 0.0000 -0.0000
        CHANNELS 6 Xposition Yposition Zposition Zrotation Xrotation Yrotation
        JOINT b_Tail003
        {
          OFFSET 4.7760 0.0000 -0.0000
          CHANNELS 6 Xposition Yposition Zposition Zrotation Xrotation Yrotation
          JOINT b_Tail004
          {
            OFFSET 4.5284 -0.0000 0.0000
            CHANNELS 6 Xposition Yposition Zposition Zrotation Xrotation Yrotation
            JOINT b_Tail005
            {
              OFFSET 9.7173 -0.0000 -0.0001
              CHANNELS 6 Xposition Yposition Zposition Zrotation Xrotation Yrotation
              JOINT b_Tail006
              {
                OFFSET 8.2617 0.0001 0.0000
                CHANNELS 6 Xposition Yposition Zposition Zrotation Xrotation Yrotation
                JOINT b_Tail007
                {
                  OFFSET 9.7599 -0.0001 0.0000
                  CHANNELS 6 Xposition Yposition Zposition Zrotation Xrotation Yrotation
                  JOINT b_Tail008
                  {
                    OFFSET 11.1530 0.0000 -0.0000
                    CHANNELS 6 Xposition Yposition Zposition Zrotation Xrotation Yrotation
                    JOINT b_Tail009
                    {
                      OFFSET 10.3039 0.0000 0.0000
                      CHANNELS 6 Xposition Yposition Zposition Zrotation Xrotation Yrotation
                      End Site
                      {
                        OFFSET 0 0 0
                      }
                    }
                  }
                }
              }
            }
          }
        }
      }
    }
    JOINT Dog_LeftTail001
    {
      OFFSET -11.9878 -1.7857 10.1900
      CHANNELS 6 Xposition Yposition Zposition Zrotation Xrotation Yrotation
      JOINT Dog_LeftTail002
      {
        OFFSET 8.4424 0.0000 0.0000
        CHANNELS 6 Xposition Yposition Zposition Zrotation Xrotation Yrotation
        JOINT Dog_LeftTail003
        {
          OFFSET 9.9501 0.0000 -0.0000
          CHANNELS 6 Xposition Yposition Zposition Zrotation Xrotation Yrotation
          JOINT Dog_LeftTail004
          {
            OFFSET 9.4342 0.0000 -0.0000
            CHANNELS 6 Xposition Yposition Zposition Zrotation Xrotation Yrotation
            JOINT Dog_LeftTail005
            {
              OFFSET 9.7173 0.0001 0.0001
              CHANNELS 6 Xposition Yposition Zposition Zrotation Xrotation Yrotation
              JOINT Dog_LeftTail006
              {
                OFFSET 8.2618 -0.0000 -0.0000
                CHANNELS 6 Xposition Yposition Zposition Zrotation Xrotation Yrotation
                JOINT Dog_LeftTail007
                {
                  OFFSET 9.7599 0.0000 0.0000
                  CHANNELS 6 Xposition Yposition Zposition Zrotation Xrotation Yrotation
                  JOINT Dog_LeftTail008
                  {
                    OFFSET 11.1529 -0.0001 -0.0001
                    CHANNELS 6 Xposition Yposition Zposition Zrotation Xrotation Yrotation
                    JOINT Dog_LeftTail009
                    {
                      OFFSET 10.3039 -0.0000 0.0000
                      CHANNELS 6 Xposition Yposition Zposition Zrotation Xrotation Yrotation
                      End Site
                      {
                        OFFSET 0 0 0
                      }
                    }
                  }
                }
              }
            }
          }
        }
      }
    }
    JOINT b_LeftLegUpper
    {
      OFFSET -0.0000 0.0000 9.9422
      CHANNELS 6 Xposition Yposition Zposition Zrotation Xrotation Yrotation
      JOINT b_LeftLeg
      {
        OFFSET 25.9795 0.0000 0.0000
        CHANNELS 6 Xposition Yposition Zposition Zrotation Xrotation Yrotation
        JOINT b_LeftLeg1
        {
          OFFSET 21.2087 0.0000 -0.0000
          CHANNELS 6 Xposition Yposition Zposition Zrotation Xrotation Yrotation
          JOINT b_LeftAnkle
          {
            OFFSET 10.4341 -0.0000 0.0000
            CHANNELS 6 Xposition Yposition Zposition Zrotation Xrotation Yrotation
            JOINT b_LeftToe
            {
              OFFSET 5.6676 6.5983 0.0000
              CHANNELS 6 Xposition Yposition Zposition Zrotation Xrotation Yrotation
              JOINT Bip01_L_Toe0Nub
              {
                OFFSET 8.6279 0.0000 -0.0000
                CHANNELS 6 Xposition Yposition Zposition Zrotation Xrotation Yrotation
                End Site
                {
                  OFFSET 0 0 0
                }
              }
            }
            JOINT b_LeftToe002
            {
              OFFSET 5.6741 -2.3619 -0.5306
              CHANNELS 6 Xposition Yposition Zposition Zrotation Xrotation Yrotation
              End Site
              {
                OFFSET 0 0 0
              }
            }
          }
        }
      }
      JOINT Dog_LeftArmor001
      {
        OFFSET -2.6287 -3.4254 -3.1462
        CHANNELS 6 Xposition Yposition Zposition Zrotation Xrotation Yrotation
        End Site
        {
          OFFSET 0 0 0
        }
      }
    }
    JOINT b_RightLegUpper
    {
      OFFSET 0.0000 -0.0000 -9.9422
      CHANNELS 6 Xposition Yposition Zposition Zrotation Xrotation Yrotation
      JOINT b_RightLeg
      {
        OFFSET 25.9795 0.0000 0.0000
        CHANNELS 6 Xposition Yposition Zposition Zrotation Xrotation Yrotation
        JOINT b_RightLeg1
        {
          OFFSET 21.2087 0.0000 0.0000
          CHANNELS 6 Xposition Yposition Zposition Zrotation Xrotation Yrotation
          JOINT b_RightAnkle
          {
            OFFSET 10.4341 -0.0000 -0.0000
            CHANNELS 6 Xposition Yposition Zposition Zrotation Xrotation Yrotation
            JOINT b_RightToe
            {
              OFFSET 5.6676 6.5983 -0.0000
              CHANNELS 6 Xposition Yposition Zposition Zrotation Xrotation Yrotation
              JOINT Bip01_R_Toe0Nub
              {
                OFFSET 8.6279 -0.0000 0.0000
                CHANNELS 6 Xposition Yposition Zposition Zrotation Xrotation Yrotation
                End Site
                {
                  OFFSET 0 0 0
                }
              }
            }
            JOINT b_RightToe002
            {
              OFFSET 5.6741 -2.3620 0.5304
              CHANNELS 6 Xposition Yposition Zposition Zrotation Xrotation Yrotation
              End Site
              {
                OFFSET 0 0 0
              }
            }
          }
        }
      }
      JOINT Dog_RightArmor001
      {
        OFFSET -2.6288 -3.4254 3.1460
        CHANNELS 6 Xposition Yposition Zposition Zrotation Xrotation Yrotation
        End Site
        {
          OFFSET 0 0 0
        }
      }
    }
  }
}
MOTION
Frames: 4
Frame Time: 0.03333333
-7.61962 58.3168 -15.1984 92.3606 -31.4157 -165.251 53.2821 -6.35e-05 8.19533 -90 -81.2558 -180 0 0 0 -89.9999 -4.1675e-14 -90 10.4409 -1.622 1.78e-05 -2.35331 -2.16138 -4.64828 8.8514 -0.0089989 0 -7.13207 2.55274 -1.21001 11.3035 -0.0087814 0 -7.78713 6.45432 -2.59381 11.0297 -0.0113029 0 -2.57313 4.58445 -4.16207 14.948 -3.19349 8.6e-06 -46.6768 -29.3285 -13.0374 5.49578 -0.0042877 -7.10543e-15 1.15968 23.7692 -6.3807 5.52657 -0.0048637 -5.32907e-15 3.03591 0.491293 2.40678 6.10934 0 -3.55271e-15 48.3496 -6.39236 4.12825 28.6688 0 3.55271e-15 2.20695e-32 3.97569e-16 -3.18055e-15 0.607494 2.35752 -7.6e-06 -156.427 -0.000147608 180 10.4683 2.1257 3.51896 -177.698 12.2988 -84.4213 7.34534 7.10543e-15 1.9e-06 -81.231 -85.2433 8.00254 23.3863 -1.9e-06 1e-06 1.82035 -0.653346 -1.22158 21.504 1.42109e-14 -1.77636e-15 -83.383 -5.78189 1.22829 1.59262 6.21256 -0.0138378 4.76212 -7.88918 -5.15417 23.3657 0 1e-06 -1.59028e-15 1.59028e-15 1.59028e-15 4.20345 4.44573 12.7354 172.377 0.21838 -87.1877 10.4683 2.12572 -3.51895 175.507 5.74707 89.7354 7.34534 0 -1.9e-06 -37.6429 64.4776 -48.743 23.3863 1.9e-06 0 -10.2081 0 4.47266e-16 21.504 3.8e-06 1e-06 -95.5643 -13.9469 9.4245 1.59262 6.21257 0.0138388 -19.7419 -11.4465 1.49192 23.3657 7.10543e-15 1e-06 180 -6.83819e-14 -6.36111e-15 4.20337 4.4457 -12.7351 172.377 -0.218352 87.1876 -4.78895 3.85983 0.86083 127.352 -7.14093 -4.48884 5.0654 4.578e-05 -6.84e-06 -11.9835 13.7861 4.89843 4.77605 3.648e-06 -6.432e-06 -5.10286 9.4994 -1.2984 4.52841 -1.0992e-05 2.7456e-05 -3.18055e-15 0 -0 9.71734 -4.2e-05 -5.72e-05 -1.59028e-15 3.18055e-15 -0 8.26175 8.01e-05 5.7e-06 6.36111e-15 0 -3.18055e-15 9.75986 -6.48e-05 2.86e-05 3.53113e-31 -6.36111e-15 3.18055e-15 11.153 2.67e-05 -2.1e-05 -1.59028e-15 -3.18055e-15 3.18055e-15 10.3039 1.14e-05 4.2e-05 -4.77083e-15 3.18055e-15 -0 -11.9878 -1.78568 10.19 170.606 3.62573 1.11034 8.44238 1.53e-05 4.2e-05 -0 1.98785e-15 -0 9.95005 7.6e-06 -2.86e-05 7.95139e-16 2.78299e-15 -3.18055e-15 9.43418 1.42109e-14 -4.58e-05 7.95139e-16 1.59028e-15 -3.18055e-15 9.71733 6.87e-05 0.0001106 7.95139e-16 1.98785e-15 -3.18055e-15 8.26175 -2.29e-05 -4.77e-05 1.10348e-31 1.98785e-15 -3.18055e-15 9.75994 2.86e-05 3.05e-05 1.10348e-31 1.98785e-15 -3.18055e-15 11.1529 -7.25e-05 -5.91e-05 1.10348e-31 1.98785e-15 -3.18055e-15 10.3039 -7.6e-06 7.10543e-15 8.82781e-32 1.59028e-15 -3.18055e-15 -1.14e-05 1.53e-05 9.94222 -103.847 12.9524 -173.257 25.9795 1e-06 0 -41.6006 -0.214829 -1.19151 21.2087 1.9e-06 -1e-06 47.8285 9.10254 -9.8754 10.4341 -1.9e-06 1e-06 -13.8954 -2.76265 4.39194 5.66763 6.59832 0 93.4441 15.8167 -7.16957 8.62785 0 0 -180 3.10104e-14 -3.18055e-15 5.67414 -2.36194 -0.530567 -75.8081 4.38708 5.33411 -2.62874 -3.42539 -3.14618 29.7499 1.82752 90.2264 1.53e-05 -1.53e-05 -9.94222 -102.279 -20.9647 176.547 25.9795 8.88178e-16 1e-06 -35.6907 -0.0985431 2.5955 21.2087 -1.77636e-15 1.9e-06 47.5423 -15.4257 11.8265 10.4341 -1.9e-06 -1e-06 -14.4331 16.1188 -4.14076 5.66763 6.59831 8.88178e-16 87.3927 1.48566 -0.742348 8.62785 1.11022e-16 1.77636e-15 1.76556e-31 1.59028e-15 -6.36111e-15 5.67412 -2.36198 0.530356 -75.808 -4.38692 -5.33418 -2.62878 -3.42545 3.14601 29.7498 -1.82753 -90.2266
-7.51773 58.3378 -15.1475 92.229 -30.7131 -165.049 53.2821 -6.35e-05 8.19533 -90 -81.2558 -180 0 0 0 -89.9999 -7.98417e-14 -90 10.4409 -1.622 1.78e-05 -2.40416 -1.97859 -4.02243 8.8514 -0.0089989 -1.77636e-15 -7.34562 2.46654 -1.04995 11.3035 -0.0087814 0 -7.93323 6.42825 -2.56105 11.0297 -0.0113029 0 -2.47932 4.5858 -4.17056 14.948 -3.19349 8.6e-06 -46.2164 -29.5643 -12.6988 5.49578 -0.0042877 -1.42109e-14 0.995182 23.9026 -6.84386 5.52657 -0.0048637 -5.32907e-15 3.01934 0.630926 2.38092 6.10934 7.10543e-15 0 48.2254 -6.42281 3.94684 28.6688 0 3.55271e-15 7.95139e-16 5.96354e-16 -0 0.607494 2.35752 -7.6e-06 -156.427 -0.000147608 180 10.4683 2.1257 3.51896 -177.561 12.323 -84.5412 7.34534 0 1.9e-06 -81.552 -85.24 7.64123 23.3863 -1.9e-06 1e-06 1.83961 -0.653757 -1.22136 21.504 0 1.77636e-15 -83.3733 -5.78168 1.22927 1.59262 6.21256 -0.0138378 4.6648 -7.90057 -5.21548 23.3657 0 1e-06 -3.18055e-15 1.19271e-15 -0 4.20345 4.44573 12.7354 172.377 0.21838 -87.1877 10.4683 2.12572 -3.51895 175.575 5.83677 89.8012 7.34534 0 -1.9e-06 -37.8151 64.5764 -48.6879 23.3863 1.9e-06 3.55271e-15 -9.97483 1.19271e-15 -4.47266e-15 21.504 3.8e-06 1e-06 -95.7865 -13.9301 9.31371 1.59262 6.21257 0.0138388 -19.8567 -11.5359 1.48581 23.3657 0 1e-06 180 9.54166e-15 -0 4.20337 4.4457 -12.7351 172.377 -0.218352 87.1876 -4.78895 3.85983 0.86083 128.041 -6.86994 -2.46418 5.0654 4.578e-05 -6.84e-06 -11.9149 12.3128 11.4758 4.77605 3.648e-06 -6.432e-06 -5.09981 9.51887 -1.29 4.52841 -1.0992e-05 2.7456e-05 6.36111e-15 -6.36111e-15 3.18055e-15 9.71734 -4.2e-05 -5.72e-05 3.18055e-15 0 -0 8.26175 8.01e-05 5.7e-06 3.18055e-15 0 -0 9.75986 -6.48e-05 2.86e-05 3.18055e-15 0 -0 11.153 2.67e-05 -2.1e-05 3.18055e-15 0 -0 10.3039 1.14e-05 4.2e-05 3.18055e-15 0 -0 -11.9878 -1.78568 10.19 170.606 3.62573 1.11034 8.44238 1.53e-05 4.2e-05 1.59028e-15 3.97569e-16 -0 9.95005 7.6e-06 -2.86e-05 7.95139e-16 -7.95139e-16 3.18055e-15 9.43418 0 -4.58e-05 7.95139e-16 -1.19271e-15 3.18055e-15 9.71733 6.87e-05 0.0001106 7.95139e-16 -7.95139e-16 3.18055e-15 8.26175 -2.29e-05 -4.77e-05 7.95139e-16 -3.97569e-16 3.18055e-15 9.75994 2.86e-05 3.05e-05 7.95139e-16 -3.97569e-16 3.18055e-15 11.1529 -7.25e-05 -5.91e-05 2.20695e-32 -3.97569e-16 3.18055e-15 10.3039 -7.6e-06 -7.10543e-15 7.95139e-16 -7.95139e-16 -0 -1.14e-05 1.53e-05 9.94222 -104.417 12.4894 -173.03 25.9795 1e-06 0 -41.7738 -0.211224 -1.19216 21.2087 1.9e-06 -1e-06 47.7343 9.65312 -10.308 10.4341 -1.9e-06 1e-06 -13.7189 -2.7491 4.40042 5.66763 6.59832 0 93.6287 15.8818 -7.15649 8.62785 0 0 -180 -2.52457e-14 -0 5.67414 -2.36194 -0.530567 -75.8081 4.38708 5.33411 -2.62874 -3.42539 -3.14618 29.7499 1.82752 90.2264 1.53e-05 -1.53e-05 -9.94222 -102.166 -21.2472 176.821 25.9795 0 1e-06 -35.3021 -0.0809273 2.59611 21.2087 1.77636e-15 1.9e-06 47.4716 -15.1602 11.5376 10.4341 -1.9e-06 -1e-06 -14.5417 16.2692 -4.08179 5.66763 6.59831 0 87.3527 1.50345 -0.748973 8.62785 2.22045e-16 -8.88178e-16 -1.98785e-15 -1.59028e-15 3.18055e-15 5.67412 -2.36198 0.530355 -75.808 -4.38692 -5.33418 -2.62878 -3.42545 3.14601 29.7498 -1.82753 -90.2266
-7.40655 58.3809 -15.1096 92.0417 -30.0333 -164.695 53.2821 -6.35e-05 8.19533 -90 -81.2558 -180 0 0 0 -89.9999 -4.1675e-14 -90 10.4409 -1.622 1.78e-05 -2.68207 -1.82315 -3.45099 8.8514 -0.0089989 -1.77636e-15 -7.54225 2.37798 -0.865137 11.3035 -0.0087814 0 -8.05619 6.39182 -2.51642 11.0297 -0.0113029 0 -2.42384 4.58969 -4.18312 14.948 -3.19349 8.6e-06 -45.6218 -29.9947 -12.2595 5.49578 -0.0042877 -1.06581e-14 0.938255 23.943 -7.4411 5.52657 -0.0048637 -5.32907e-15 3.01398 0.757982 2.34812 6.10934 0 0 48.1399 -6.46048 3.77478 28.6688 0 0 1.59028e-15 -4.77083e-15 -3.18055e-15 0.607494 2.35752 -7.6e-06 -156.427 -0.000147608 180 10.4683 2.1257 3.51896 -177.347 12.4512 -84.4344 7.34534 7.10543e-15 1.9e-06 -82.3599 -85.1334 6.70913 23.3863 -1.9e-06 1e-06 1.79699 -0.652848 -1.22185 21.504 0 0 -83.3189 -5.78052 1.23475 1.59262 6.21256 -0.0138378 4.57513 -7.83924 -5.18495 23.3657 3.55271e-15 1e-06 1.59028e-15 -3.97569e-16 -0 4.20345 4.44573 12.7354 172.377 0.21838 -87.1877 10.4683 2.12572 -3.51895 175.63 5.85606 89.7683 7.34534 -7.10543e-15 -1.9e-06 -37.7571 64.5827 -48.7606 23.3863 1.9e-06 0 -9.85689 3.97569e-16 -3.62782e-15 21.504 3.8e-06 1e-06 -95.9432 -13.9426 9.14645 1.59262 6.21257 0.0138388 -19.8669 -11.539 1.48602 23.3657 0 1e-06 180 4.29375e-14 -0 4.20337 4.4457 -12.7351 172.377 -0.218352 87.1876 -4.78895 3.85983 0.86083 129.316 -6.7605 -0.685471 5.0654 4.578e-05 -6.84e-06 -10.2371 10.1106 17.1946 4.77605 3.648e-06 -6.432e-06 -4.71057 9.65049 -1.09864 4.52841 -1.0992e-05 2.7456e-05 -9.54166e-15 6.36111e-15 -6.36111e-15 9.71734 -4.2e-05 -5.72e-05 -3.18055e-15 3.18055e-15 -0 8.26175 8.01e-05 5.7e-06 -3.18055e-15 0 3.18055e-15 9.75986 -6.48e-05 2.86e-05 -3.18055e-15 3.18055e-15 -0 11.153 2.67e-05 -2.1e-05 -3.18055e-15 0 -3.18055e-15 10.3039 1.14e-05 4.2e-05 -6.36111e-15 -3.18055e-15 3.18055e-15 -11.9878 -1.78568 10.19 170.606 3.62573 1.11034 8.44238 1.53e-05 4.2e-05 -1.59028e-15 0 -6.36111e-15 9.95005 7.6e-06 -2.86e-05 7.95139e-16 -7.95139e-16 -9.54166e-15 9.43418 1.42109e-14 -4.58e-05 -1.32417e-31 -1.19271e-15 -6.36111e-15 9.71733 6.87e-05 0.0001106 -0 0 -3.18055e-15 8.26175 -2.29e-05 -4.77e-05 -7.95139e-16 0 -3.18055e-15 9.75994 2.86e-05 3.05e-05 -0 0 -3.18055e-15 11.1529 -7.25e-05 -5.91e-05 -0 0 -3.18055e-15 10.3039 -7.6e-06 7.10543e-15 -0 0 -3.18055e-15 -1.14e-05 1.53e-05 9.94222 -105.046 12.0575 -172.895 25.9795 1e-06 3.55271e-15 -41.742 -0.211886 -1.19204 21.2087 1.9e-06 -1e-06 47.5647 10.2106 -10.6867 10.4341 -1.9e-06 1e-06 -13.5157 -2.73347 4.41014 5.66763 6.59832 3.55271e-15 93.8806 15.9473 -7.15318 8.62785 8.88178e-16 0 -180 6.34123e-14 6.36111e-15 5.67414 -2.36194 -0.530567 -75.8081 4.38708 5.33411 -2.62874 -3.42539 -3.14618 29.7499 1.82752 90.2264 1.53e-05 -1.53e-05 -9.94222 -102.233 -21.5295 177.037 25.9795 0 1e-06 -34.8569 -0.0607399 2.59666 21.2087 1.77636e-15 1.9e-06 47.2947 -14.8849 11.2806 10.4341 -1.9e-06 -1e-06 -14.592 16.4012 -4.03919 5.66763 6.59831 -8.88178e-16 87.3532 1.49432 -0.736592 8.62785 2.22045e-16 0 4.41391e-32 -3.97569e-16 6.36111e-15 5.67412 -2.36198 0.530356 -75.808 -4.38692 -5.33418 -2.62878 -3.42545 3.14601 29.7498 -1.82753 -90.2266
-7.30821 58.4165 -15.0713 91.8548 -29.4216 -164.446 53.2821 -6.35e-05 8.19533 -90 -81.2558 -180 0 0 0 -89.9999 -5.43972e-14 -90 10.4409 -1.622 1.78e-05 -2.99977 -1.66083 -2.9516 8.8514 -0.0089989 0 -7.59244 2.33342 -0.700215 11.3035 -0.0087814 0 -8.07774 6.32328 -2.45746 11.0297 -0.0113029 -3.55271e-15 -2.43429 4.57639 -4.20846 14.948 -3.19349 8.6e-06 -45.256 -30.2445 -12.123 5.49578 -0.0042877 -7.10543e-15 0.962324 24.0287 -7.75664 5.52657 -0.0048637 -5.32907e-15 3.00685 0.863204 2.30977 6.10934 -7.10543e-15 -3.55271e-15 48.1474 -6.50273 3.63751 28.6688 1.42109e-14 0 1.59028e-15 2.38542e-15 -3.18055e-15 0.607494 2.35752 -7.6e-06 -156.427 -0.000147608 180 10.4683 2.1257 3.51896 -177.227 12.6233 -84.0944 7.34534 -1.42109e-14 1.9e-06 -83.0168 -84.8972 5.9076 23.3863 -1.9e-06 1e-06 1.73826 -0.651595 -1.22252 21.504 0 3.55271e-15 -83.1846 -5.77762 1.24827 1.59262 6.21256 -0.0138378 4.51818 -7.75458 -5.06431 23.3657 0 1e-06 1.59028e-15 3.18055e-15 1.59028e-15 4.20345 4.44573 12.7354 172.377 0.21838 -87.1877 10.4683 2.12572 -3.51895 175.622 5.85117 89.7203 7.34534 -1.42109e-14 -1.9e-06 -37.5356 64.5973 -48.9459 23.3863 1.9e-06 0 -9.75706 1.19271e-15 1.2424e-16 21.504 3.8e-06 1e-06 -96.0904 -13.967 8.92565 1.59262 6.21257 0.0138388 -19.8284 -11.4901 1.49105 23.3657 0 1e-06 180 1.90833e-14 9.54166e-15 4.20337 4.4457 -12.7351 172.377 -0.218352 87.1876 -4.78895 3.85983 0.86083 130.599 -6.69702 0.77875 5.0654 4.578e-05 -6.84e-06 -8.09589 7.5733 20.9218 4.77605 3.648e-06 -6.432e-06 -4.65043 9.69183 -0.991369 4.52841 -1.0992e-05 2.7456e-05 6.36111e-15 3.18055e-15 -0 9.71734 -4.2e-05 -5.72e-05 -9.54166e-15 0 -0 8.26175 8.01e-05 5.7e-06 3.18055e-15 -4.77083e-15 6.36111e-15 9.75986 -6.48e-05 2.86e-05 -3.18055e-15 4.77083e-15 -0 11.153 2.67e-05 -2.1e-05 -6.36111e-15 -1.59028e-15 -3.18055e-15 10.3039 1.14e-05 4.2e-05 -1.27222e-14 3.18055e-15 -3.18055e-15 -11.9878 -1.78568 10.19 170.606 3.62573 1.11034 8.44238 1.53e-05 4.2e-05 7.95139e-16 -1.19271e-15 -0 9.95005 7.6e-06 -2.86e-05 7.95139e-16 -3.97569e-16 -0 9.43418 1.42109e-14 -4.58e-05 2.20695e-32 3.97569e-16 -3.18055e-15 9.71733 6.87e-05 0.0001106 -0 -3.97569e-16 -0 8.26175 -2.29e-05 -4.77e-05 7.95139e-16 0 -0 9.75994 2.86e-05 3.05e-05 1.59028e-15 -1.19271e-15 -0 11.1529 -7.25e-05 -5.91e-05 7.95139e-16 0 3.18055e-15 10.3039 -7.6e-06 7.10543e-15 7.95139e-16 3.97569e-16 3.18055e-15 -1.14e-05 1.53e-05 9.94222 -105.533 11.6745 -172.808 25.9795 1e-06 0 -41.6929 -0.212909 -1.19186 21.2087 1.9e-06 -1e-06 47.4408 10.6913 -10.9844 10.4341 -1.9e-06 1e-06 -13.3565 -2.72119 4.41771 5.66763 6.59832 3.55271e-15 94.098 15.9983 -7.16176 8.62785 0 -3.55271e-15 -180 -3.53837e-14 3.18055e-15 5.67414 -2.36194 -0.530567 -75.8081 4.38708 5.33411 -2.62874 -3.42539 -3.14618 29.7499 1.82752 90.2264 1.53e-05 -1.53e-05 -9.94222 -102.27 -21.7882 177.2 25.9795 0 1e-06 -34.4986 -0.0444899 2.59699 21.2087 5.32907e-15 1.9e-06 47.1309 -14.6511 11.0748 10.4341 -1.9e-06 -1e-06 -14.6245 16.5157 -4.02225 5.66763 6.59831 -8.88178e-16 87.33 1.49721 -0.737343 8.62785 -4.44089e-16 0 -1.59028e-15 -2.38542e-15 3.18055e-15 5.67412 -2.36198 0.530355 -75.808 -4.38692 -5.33418 -2.62878 -3.42545 3.14601 29.7498 -1.82753 -90.2266
